<svg xmlns="http://www.w3.org/2000/svg" width="1100" height="780" viewBox="0 0 1100 780">
  <defs>
    <linearGradient id="stock" x1="0" y1="0" x2="1" y2="1"><stop stop-color="#deddd8"/><stop offset=".5" stop-color="#f4f2ec"/><stop offset="1" stop-color="#c4c3bd"/></linearGradient>
    <radialGradient id="record" cx="43%" cy="38%" r="69%"><stop stop-color="#1f1f1f"/><stop offset=".35" stop-color="#070707"/><stop offset="1" stop-color="#161616"/></radialGradient>
    <filter id="copygrain"><feTurbulence type="fractalNoise" baseFrequency=".7" numOctaves="3"/><feColorMatrix values=".28 0 0 0 .25 .28 0 0 0 .25 .28 0 0 0 .24 0 0 0 .19 0"/></filter>
    <filter id="smudge" x="-10%" y="-20%" width="120%" height="140%"><feTurbulence type="fractalNoise" baseFrequency=".07" numOctaves="2" seed="21" result="n"/><feDisplacementMap in="SourceGraphic" in2="n" scale="3.2"/><feGaussianBlur stdDeviation=".45"/></filter>
    <clipPath id="recordclip"><circle cx="550" cy="392" r="309"/></clipPath>
  </defs>
  <rect width="1100" height="780" fill="url(#stock)"/>
  <rect width="1100" height="780" filter="url(#copygrain)" opacity=".44"/>
  <path d="M46 122H198M902 119h152" stroke="#111" stroke-width="3"/>
  <text x="48" y="83" font-family="Courier New,monospace" font-size="16" font-weight="bold" letter-spacing="2" fill="#111">SCRIPT RADIO</text>
  <text x="48" y="107" font-family="Courier New,monospace" font-size="10" letter-spacing="2" fill="#444">LISTENING COPY / NOT FOR BROADCAST</text>
  <g transform="rotate(4 970 88)">
    <rect x="899" y="56" width="155" height="53" fill="none" stroke="#e44824" stroke-width="3"/>
    <text x="976" y="89" text-anchor="middle" font-family="Arial Black,Impact,sans-serif" font-size="21" font-weight="900" letter-spacing="1" fill="#e44824">SIDE 01</text>
  </g>
  <circle cx="550" cy="392" r="309" fill="#111" opacity=".2"/>
  <circle cx="550" cy="390" r="309" fill="url(#record)" stroke="#090909" stroke-width="4"/>
  <g clip-path="url(#recordclip)" fill="none" stroke="#b9b8b2" opacity=".35">
    <circle cx="550" cy="390" r="294"/><circle cx="550" cy="390" r="284"/><circle cx="550" cy="390" r="276"/><circle cx="550" cy="390" r="262"/><circle cx="550" cy="390" r="251"/><circle cx="550" cy="390" r="239"/><circle cx="550" cy="390" r="225"/><circle cx="550" cy="390" r="215"/>
  </g>
  <g clip-path="url(#recordclip)">
    <path d="M269 205l48-18 8 10 34-15 11 15 39-16 12 10 28-11 15 12m355 24 28-11 18 14 19-9 23 14M298 290l24-10 19 16 21-8m385 247 38-17 12 14 32-10 17 17M352 587l29-14 14 16 28-12" fill="none" stroke="#ddd9d0" stroke-width="8" opacity=".48"/>
    <text x="554" y="235" text-anchor="middle" transform="rotate(-5 554 220)" font-family="American Typewriter" font-size="58" font-weight="bold" letter-spacing="6" fill="#eeece5" opacity=".3" filter="url(#smudge)">SCRIPT</text>
    <text x="552" y="233" text-anchor="middle" transform="rotate(-5 552 220)" font-family="American Typewriter" font-size="58" font-weight="bold" letter-spacing="6" fill="#eeece5" filter="url(#smudge)">SCRIPT</text>
    <path d="M346 244l13-4 8 4m289 4 12 2 9-5 11 3m-334-9 5-4 6 2" stroke="#e8e5dc" stroke-width="4" opacity=".75"/>
    <g transform="rotate(-7 398 626)"><rect x="335" y="548" width="104" height="103" fill="#e44824"/><text x="387" y="640" text-anchor="middle" font-family="Arial Black" font-size="108" font-weight="900" fill="#f2efe8">R</text></g>
    <g transform="rotate(4 483 667)"><rect x="434" y="596" width="102" height="103" fill="#f0eee8"/><text x="484" y="681" text-anchor="middle" font-family="Arial Black" font-size="105" font-weight="900" fill="#111">A</text></g>
    <g transform="rotate(-2 586 632)"><rect x="538" y="575" width="100" height="105" fill="#111"/><text x="588" y="661" text-anchor="middle" font-family="Arial Black" font-size="111" font-weight="900" fill="#f2efe8">D</text></g>
    <g transform="rotate(8 687 674)"><rect x="646" y="619" width="83" height="88" fill="#e44824"/><text x="688" y="694" text-anchor="middle" font-family="Arial Black" font-size="100" font-weight="900" fill="#f2efe8">I</text></g>
    <g transform="rotate(-5 768 629)"><rect x="719" y="572" width="103" height="105" fill="#f0eee8"/><text x="771" y="657" text-anchor="middle" font-family="Arial Black" font-size="108" font-weight="900" fill="#111">O</text></g>
  </g>
  <circle cx="550" cy="390" r="106" fill="#dfded9" stroke="#171717" stroke-width="3"/>
  <path d="M474 390h152M550 313v154" stroke="#555" stroke-width="1" opacity=".65"/>
  <text x="550" y="379" text-anchor="middle" font-family="Courier New,monospace" font-size="12" font-weight="bold" letter-spacing="2" fill="#111">TAKE 01</text>
  <text x="550" y="400" text-anchor="middle" font-family="Courier New,monospace" font-size="10" letter-spacing="1" fill="#111">A SIDE / A STORY</text>
  <circle cx="550" cy="390" r="6" fill="#111"/>
  <g font-family="Courier New,monospace" font-size="13" font-weight="bold" letter-spacing="1">
    <rect x="79" y="706" width="190" height="44" fill="#111"/><text x="174" y="734" text-anchor="middle" fill="#f3f1eb">+  NEW SCRIPT</text>
    <rect x="831" y="706" width="190" height="44" fill="#e44824"/><text x="926" y="734" text-anchor="middle" fill="#111">PREVIOUS  /  -</text>
  </g>
  <text x="550" y="747" text-anchor="middle" font-family="Courier New,monospace" font-size="10" letter-spacing="2" fill="#333">CUT / PRINT / PLAY</text>
</svg>